<svg width="504" height="368" viewBox="0 0 504 368" fill="none" xmlns="http://www.w3.org/2000/svg">
<path d="M149.399 243.368L117.399 367.265C117.399 367.265 -3.21627 283.573 0.0657861 280.291C3.34784 277.009 251.143 64.496 251.143 64.496L312.681 103.881L347.964 75.1627L149.399 243.368Z" fill="#3AAE83"/>
<path d="M245.869 86.2653L226.143 103.671L276.619 135.291L294.605 119.046L245.869 86.2653Z" fill="#329570"/>
<path d="M217.73 113.534L198.874 132.1L244.419 162.27L263.565 145.735L217.73 113.534Z" fill="#329570"/>
<path d="M77.983 238.148L57.3862 255.264L133.101 304.29L140.063 279.632L77.983 238.148Z" fill="#329570"/>
<path d="M48.3932 266.287L28.6667 283.693L123.546 346.869L130.625 320.097L48.3932 266.287Z" fill="#329570"/>
<path d="M183.85 147.124L164.124 164.53L207.928 193.539L226.494 177.584L183.85 147.124Z" fill="#329570"/>
<path d="M146.076 177.935L126.35 195.341L171.605 224.351L191.912 208.105L146.076 177.935Z" fill="#329570"/>
<path d="M111.265 212.747L91.5386 230.152L144.336 262.933L149.413 242.627L154.779 239.435L111.265 212.747Z" fill="#329570"/>
<path d="M103.73 87.2841C103.73 72.0904 107.454 58.0884 114.902 45.2781C122.35 32.4677 132.554 22.3386 145.513 14.8907C158.472 7.4428 172.474 3.64438 187.519 3.49543C202.564 3.34647 216.566 7.14489 229.525 14.8907C242.485 22.6365 252.688 32.7656 260.136 45.2781C267.584 57.7905 271.308 71.7925 271.308 87.2841C271.308 93.6893 269.744 101.137 266.616 109.628C263.488 118.118 259.54 126.683 254.774 135.323C250.007 143.963 244.57 152.751 238.463 161.688C232.355 170.626 226.397 178.968 220.588 186.713C214.778 194.459 209.341 201.311 204.277 207.27C199.212 213.228 195.19 218.069 192.211 221.793L187.519 226.932C186.328 225.74 184.763 223.953 182.827 221.569C180.891 219.186 176.943 214.494 170.985 207.493C165.027 200.492 159.515 193.491 154.451 186.49C149.386 179.489 143.502 171.296 136.799 161.912C130.096 152.528 124.585 143.59 120.265 135.1C115.945 126.609 111.998 118.193 108.423 109.851C104.848 101.51 103.284 93.9872 103.73 87.2841ZM131.66 87.2841C131.66 102.776 137.097 115.958 147.971 126.832C158.845 137.706 172.028 143.143 187.519 143.143C203.011 143.143 216.194 137.706 227.067 126.832C237.941 115.958 243.378 102.776 243.378 87.2841C243.378 71.7925 237.941 58.6842 227.067 47.9593C216.194 37.2343 203.011 31.7229 187.519 31.425C172.028 31.1271 158.845 36.6385 147.971 47.9593C137.097 59.2801 131.66 72.3883 131.66 87.2841Z" fill="#FF5959" stroke="#FF5959" stroke-width="6.98239"/>
<path d="M187.231 142.107C216.896 142.107 240.944 117.508 240.944 87.163C240.944 56.8183 216.896 32.2191 187.231 32.2191C157.566 32.2191 133.518 56.8183 133.518 87.163C133.518 117.508 157.566 142.107 187.231 142.107Z" fill="white" stroke="#FF5959" stroke-width="0.961092" stroke-linecap="round" stroke-linejoin="round"/>
<path d="M350.103 74.8552C346.821 74.8552 153.18 244.701 153.18 244.701L327.949 357.112L503.539 170.035L350.103 74.8552Z" fill="#3AAE83"/>
<path d="M121.18 366.138C125.282 362.193 220.462 296.711 220.462 296.711C220.462 296.711 158.923 250.164 155.641 250.164C152.359 250.164 121.18 366.138 121.18 366.138Z" fill="#165A40"/>
<path d="M348.67 93.5414L328.944 110.947L462.388 192.174L480.954 173.608L348.67 93.5414Z" fill="#329570"/>
<path d="M321.982 120.23L302.255 137.636L435.699 218.863L454.265 200.296L321.982 120.23Z" fill="#329570"/>
<path d="M321.982 120.23L302.255 137.636L435.699 218.863L454.265 200.296L321.982 120.23Z" fill="#329570"/>
<path d="M286.651 154.4L266.925 171.806L400.369 253.033L418.935 234.466L286.651 154.4Z" fill="#329570"/>
<path d="M248.878 185.211L229.151 202.617L362.595 283.844L381.161 265.278L248.878 185.211Z" fill="#329570"/>
<path d="M214.066 220.023L194.34 237.429L327.784 318.655L346.35 300.089L214.066 220.023Z" fill="#329570"/>
</svg>

