<svg width="1170" height="424" viewBox="0 0 1170 424" fill="none" xmlns="http://www.w3.org/2000/svg">
<path d="M1043.23 223.924C1043.24 223.944 1043.24 223.965 1043.24 223.986H1043.25C1043.28 223.989 1043.31 223.989 1043.34 223.991C1043.31 223.969 1043.27 223.949 1043.23 223.924Z" fill="#406355"/>
<path d="M1043.55 223.823C1043.5 223.881 1043.44 223.934 1043.39 223.994C1043.46 223.999 1043.55 224.006 1043.62 224.012C1043.6 223.949 1043.57 223.886 1043.55 223.823Z" fill="#406355"/>
<path d="M1023.97 185.917L1045.21 195.656L1065.57 190.344L1023.97 185.917Z" fill="#2F7462"/>
<path d="M1023.97 160.243L1039.02 177.064L1050.52 171.752L1023.97 160.243Z" fill="#2F7462"/>
<path d="M893.872 148.734L905.378 153.161L900.067 161.128L920.423 152.275L893.872 148.734Z" fill="#406355"/>
<path d="M446.936 323.141L453.131 330.224L483.222 323.141H446.936Z" fill="#406355"/>
<path d="M7.96411 70.8262L26.5496 85.8766L24.7796 76.1381L7.96411 70.8262Z" fill="#406355"/>
<path d="M46.0201 107.124L67.2607 136.34L69.9157 121.289L46.0201 107.124Z" fill="#406355"/>
<path d="M83.1911 173.523L97.3515 188.573L105.317 187.688L92.0413 168.211L83.1911 173.523Z" fill="#406355"/>
<path d="M107.087 202.738L119.477 207.165L113.282 192.115C113.282 192.115 102.662 201.853 107.087 202.738Z" fill="#406355"/>
<path d="M119.477 213.362C121.247 211.592 133.637 228.413 133.637 228.413L136.293 220.445L119.477 213.362Z" fill="#406355"/>
<path d="M76.1109 146.078V158.473L81.421 159.358L84.9611 148.734L76.1109 146.078Z" fill="#406355"/>
<path d="M252.231 193L275.241 178.835L282.321 206.28L297.367 208.936L292.057 219.559L300.022 222.215L290.287 229.298L269.046 214.248L264.621 196.541L252.231 193Z" fill="#406355"/>
<path d="M314.182 208.05L315.067 231.954L332.768 230.183L333.653 212.477L314.182 208.05Z" fill="#406355"/>
<path d="M227.45 161.129L238.07 148.734L230.99 135.454L251.346 150.505L241.61 154.931L233.645 162.014L227.45 161.129Z" fill="#406355"/>
<path d="M333.653 36.2988L322.147 44.2667L329.228 51.3492L337.193 46.0373L333.653 36.2988Z" fill="#406355"/>
<path d="M228.335 115.092L238.07 127.486L238.955 116.863L228.335 115.092Z" fill="#406355"/>
<path d="M209.749 117.748L211.519 127.487L218.6 123.06L209.749 117.748Z" fill="#406355"/>
<path d="M640.756 293.041L647.836 293.926C647.836 293.926 645.181 307.206 645.181 310.747C645.181 314.288 640.756 293.041 640.756 293.041Z" fill="#406355"/>
<g clip-path="url(#clip0_2031_329)">
<path d="M377.059 341.727C377.051 341.746 377.045 341.765 377.037 341.784C377.059 341.769 377.081 341.753 377.103 341.737C377.088 341.733 377.079 341.732 377.059 341.727Z" fill="#406355"/>
<path d="M384.323 339.026C383.946 339.386 383.527 339.704 383.119 340.026C382.527 340.478 381.945 340.945 381.34 341.379C381.118 341.526 380.914 341.692 380.719 341.871C380.687 341.903 380.652 341.933 380.618 341.962C380.735 342.271 380.43 342.609 379.846 342.462C379.6 342.4 379.356 342.337 379.111 342.273C377.997 343.024 376.893 343.791 375.795 344.567C375.676 344.87 375.556 345.173 375.437 345.476C375.339 345.72 375.239 345.961 375.137 346.203L375.364 346.238L393.13 355.395L393.673 355.483C393.513 354.692 393.348 353.902 393.17 353.115C393.118 353.02 393.085 352.893 393.085 352.739C392.615 350.698 392.062 348.678 391.328 346.711C391.112 346.753 390.851 346.749 390.551 346.68C389.122 346.352 387.71 345.96 386.281 345.633C385.871 346.243 384.986 346.08 384.757 345.027C384.5 344.737 384.476 344.385 384.653 344.118C384.525 342.65 384.478 341.164 384.608 339.695C384.513 339.472 384.418 339.249 384.323 339.026Z" fill="#2F7462"/>
<path d="M401.647 350.315C400.761 351.09 399.876 351.869 398.932 352.572C398.883 352.609 398.835 352.641 398.788 352.668C398.783 352.758 398.763 352.856 398.73 352.964C398.63 353.284 398.529 353.603 398.43 353.923C399.51 352.728 400.578 351.52 401.647 350.315Z" fill="#406355"/>
<path d="M423.277 317.157L418.04 318.73C417.224 321.259 416.378 323.778 415.497 326.285C415.453 326.506 415.408 326.727 415.36 326.947C415.546 327.12 415.594 327.469 415.317 327.873C415.126 328.154 414.9 328.405 414.659 328.641C414.489 329.112 414.317 329.581 414.144 330.052C414.098 330.176 414.048 330.285 413.993 330.382C414.53 331.01 413.968 331.919 412.678 331.63C412.271 331.538 411.864 331.449 411.456 331.364C411.232 331.535 411.006 331.703 410.777 331.867C410.323 332.193 409.952 332.099 409.824 331.847C409.791 331.844 409.757 331.84 409.723 331.834C409.227 331.754 408.736 331.649 408.251 331.518C407.478 331.325 406.694 331.149 405.93 330.917C405.785 331.651 405.636 332.383 405.48 333.114V333.591V337.769C405.494 338.129 405.473 338.488 405.445 338.847C405.653 339.031 405.649 339.402 405.228 339.758C404.779 340.137 404.314 340.498 403.845 340.854C403.873 341.015 403.9 341.177 403.931 341.338C403.993 341.628 404.055 341.918 404.123 342.207C404.141 342.284 404.148 342.354 404.145 342.416C404.154 342.421 404.164 342.427 404.173 342.431C404.288 342.497 404.398 342.571 404.511 342.638C404.78 342.798 405.058 342.944 405.332 343.095C405.695 343.294 406.058 343.49 406.417 343.696C406.52 343.697 406.619 343.76 406.674 343.878C406.694 343.891 406.715 343.903 406.735 343.916C407.298 344.269 407.289 344.756 406.985 344.938C406.971 345.108 406.955 345.277 406.937 345.446C407.572 346.098 407.344 346.825 406.727 346.95C406.701 347.117 406.674 347.286 406.649 347.453C406.57 347.95 406.609 347.716 406.53 348.147C406.401 348.85 405.883 348.995 405.612 348.7C405.573 348.694 405.534 348.686 405.493 348.674C403.202 351.196 400.973 353.788 398.662 356.296L416.279 359.164L420.047 355.932L446.429 361.857L457.734 355.932L477.653 367.242L484.114 365.626L485.191 369.936L492.189 370.473L485.191 361.317L487.881 345.161L476.576 338.698L470.115 342.47L462.04 341.392L456.119 343.545L443.198 337.623L445.351 330.082L440.506 329.004L438.891 320.926L428.122 322.542L423.277 317.157Z" fill="#406063"/>
<path d="M404.234 338.804C404.203 338.947 404.171 339.089 404.14 339.232C404.139 339.241 404.138 339.249 404.135 339.258C404.168 339.231 404.2 339.206 404.233 339.179C404.233 339.054 404.234 338.929 404.234 338.804Z" fill="#406355"/>
<path d="M374.163 345.734C374.036 345.824 373.908 345.915 373.781 346.006L374.029 346.042C374.074 345.939 374.119 345.837 374.163 345.734Z" fill="#406355"/>
<path d="M346.524 319.56L345.214 319.85L344.634 319.742C344.433 320.548 344.224 321.351 344.005 322.153C344.854 321.297 345.692 320.432 346.524 319.56Z" fill="#406355"/>
<path d="M399.05 308.001L390.975 309.616L384.514 323.082L378.594 320.388L372.671 322.004L359.213 318.772L356.52 320.388L350.059 318.772L349.603 318.873L349.6 318.876C347.446 321.191 345.243 323.461 342.973 325.662C342.94 325.747 342.906 325.833 342.87 325.917C342.836 325.993 342.798 326.057 342.759 326.116C342.741 326.143 342.724 326.171 342.706 326.194C342.665 326.246 342.613 326.298 342.552 326.346C342.478 326.403 342.39 326.456 342.284 326.502C342.24 326.522 342.196 326.543 342.15 326.56C342.09 326.583 342.031 326.605 341.971 326.626C340.994 327.556 340.004 328.472 338.998 329.373C338.84 329.514 338.685 329.618 338.537 329.691C338.462 330.49 338.41 331.292 338.35 332.091C338.346 332.148 338.339 332.202 338.332 332.255C338.935 332.561 339.508 332.924 340.089 333.27C340.299 333.396 340.432 333.541 340.5 333.684C340.654 333.819 340.761 334.074 340.74 334.437C340.713 334.901 340.792 335.368 340.861 335.825C340.969 336.544 341.058 337.037 341.181 337.764C341.418 339.103 341.61 340.448 341.772 341.798L357.057 343.545L371.288 345.638C371.385 345.563 371.487 345.484 371.596 345.4C372.849 344.492 374.106 343.587 375.374 342.697C375.539 342.285 375.708 341.874 375.878 341.465C376.034 341.091 376.277 340.909 376.497 340.879C376.575 340.821 376.681 340.782 376.812 340.773C376.901 340.767 376.999 340.776 377.11 340.801C377.593 340.909 377.349 340.849 377.859 340.98C380.126 339.445 382.434 337.973 384.812 336.615C385.145 336.425 385.452 336.347 385.713 336.35C386.382 336.358 386.744 336.902 386.455 337.458C386.58 337.707 386.631 338.052 386.553 338.486C386.384 339.431 386.31 340.391 386.301 341.354C386.674 342.239 387.054 343.122 387.467 343.989C387.486 344.029 387.501 344.068 387.515 344.105C387.522 344.107 387.53 344.108 387.537 344.11C388.685 344.391 389.827 344.696 390.98 344.961C391.176 345.006 391.343 345.068 391.484 345.143C391.602 345.052 391.742 345.003 391.891 345.002C392.168 344.999 392.474 345.159 392.716 345.522C392.881 345.563 393.046 345.606 393.211 345.648C393.265 345.613 393.326 345.593 393.387 345.59C393.545 345.582 393.709 345.682 393.804 345.893C394.017 346.077 394.037 346.324 393.894 346.481C393.942 347.378 393.988 348.277 394.023 349.175C394.024 349.211 394.024 349.247 394.026 349.283C394.342 350.393 394.621 351.514 394.876 352.641C394.937 352.603 395.002 352.585 395.068 352.585C395.297 352.585 395.526 352.81 395.525 353.264C395.522 354.062 395.568 354.859 395.631 355.655C395.635 355.705 395.64 355.754 395.644 355.804L396.522 355.948C396.599 355.871 396.677 355.794 396.754 355.718C397.052 354.709 397.364 353.705 397.68 352.701C397.732 352.537 397.801 352.407 397.882 352.307C397.9 352.119 398.022 351.902 398.283 351.707C399.499 350.799 400.618 349.768 401.768 348.781C402.231 348.381 402.686 347.974 403.141 347.566C403.254 347.465 403.364 347.394 403.469 347.349C403.458 347.098 403.657 346.888 403.984 346.885C404.124 346.884 404.285 346.919 404.466 347.006C404.508 347.026 404.548 347.044 404.59 347.064C404.851 346.844 405.108 346.742 405.334 346.728C405.434 346.722 405.529 346.735 405.614 346.761C405.62 346.722 405.625 346.684 405.63 346.645C405.622 346.64 405.614 346.635 405.607 346.63C404.135 345.595 402.746 344.453 401.375 343.29C400.414 342.475 400.784 341.604 401.569 341.596C401.647 341.595 401.728 341.604 401.814 341.621L401.816 341.619V341.616V341.614V341.611C402.198 339.882 401.999 340.801 402.409 338.859C402.987 336.189 403.604 333.526 404.141 330.847C404.146 330.715 404.152 330.584 404.161 330.453C404.165 330.401 404.171 330.355 404.181 330.312C404.143 330.19 404.189 330.067 404.305 329.996C404.274 329.842 404.324 329.696 404.438 329.595L404.441 329.592V329.589L404.444 329.587V329.584V329.582C404.499 329.386 404.603 329.252 404.724 329.18C404.818 329.092 404.919 329.029 405.024 328.994C405.198 328.864 405.443 328.775 405.753 328.751C405.85 328.743 405.952 328.745 406.061 328.751L407.167 328.814C408.748 329.04 410.318 329.319 411.881 329.645C412.143 329.428 412.402 329.207 412.658 328.983C413.437 326.828 414.195 324.666 414.929 322.496C414.98 322.104 415.028 321.714 415.078 321.329C415.256 319.911 415.442 318.494 415.636 317.078L411.434 313.925L408.741 317.157L402.281 316.079L399.05 308.001Z" fill="#406355"/>
<path d="M340.041 337.441C340.18 338.846 340.336 340.249 340.5 341.651L340.679 341.672C340.526 340.424 340.345 339.181 340.126 337.943C340.097 337.772 340.069 337.606 340.041 337.441Z" fill="#406355"/>
<path d="M337.832 333.205C337.818 333.215 337.804 333.224 337.79 333.232C337.865 333.293 337.941 333.353 338.016 333.414C338.025 333.379 338.035 333.347 338.046 333.316C337.975 333.277 337.904 333.241 337.832 333.205Z" fill="#406355"/>
<path d="M291.552 306.809C291.562 306.854 291.574 306.898 291.585 306.943H291.829C291.736 306.899 291.644 306.855 291.552 306.809Z" fill="#406355"/>
<path d="M298.552 296.318C297.765 299.493 296.994 302.675 296.117 305.827C296.035 306.342 295.944 306.854 295.837 307.364C295.772 307.676 295.632 307.875 295.474 307.975C295.137 308.687 294.543 308.811 294.169 308.508C293.955 308.634 293.663 308.715 293.291 308.715H291.759C291.51 309.386 290.719 309.445 290.275 308.715H282.068C281.968 309.52 281.884 310.326 281.813 311.134C281.692 312.626 281.603 314.118 281.556 315.614C281.646 315.642 281.74 315.684 281.839 315.738C282.12 315.895 282.413 316.026 282.709 316.152C282.842 316.167 282.975 316.183 283.108 316.197C283.212 315.365 283.678 314.948 284.107 314.948C284.546 314.948 284.945 315.382 284.869 316.256C284.839 316.605 284.776 316.947 284.726 317.293C284.738 317.378 284.728 317.459 284.693 317.533C284.376 319.541 283.764 321.494 283.007 323.397L284.377 322.541L281.687 334.391L310.759 336.545L333.908 346.238L338.216 341.391L338.693 341.444C338.473 339.548 338.271 337.651 338.108 335.749C338.072 335.724 338.035 335.697 337.999 335.669C337.497 335.277 337.003 334.875 336.51 334.472C335.534 333.676 335.839 332.742 336.591 332.692C336.613 332.691 336.636 332.69 336.659 332.69C336.652 332.669 336.645 332.649 336.639 332.627C336.568 332.592 336.498 332.557 336.427 332.523C335.879 332.262 335.801 331.835 336.015 331.604C336.018 331.584 336.022 331.564 336.026 331.543C336.059 331.342 336.042 331.453 336.079 331.213C336.176 330.574 336.271 329.935 336.389 329.299C336.484 328.831 336.584 328.364 336.71 327.903C336.667 327.748 336.715 327.567 336.869 327.419C336.943 327.269 337.036 327.165 337.136 327.1C337.316 326.625 337.632 326.394 337.941 326.378C338.177 326.367 338.408 326.479 338.57 326.704C338.849 326.591 339.129 326.482 339.415 326.386C339.539 326.341 339.664 326.295 339.788 326.25C340.694 325.404 341.587 324.548 342.471 323.68C342.629 323.12 342.79 322.537 342.943 321.983C343.165 321.173 343.379 320.36 343.581 319.545L336.601 318.235L335.524 310.156L330.678 303.154L325.295 306.385L317.757 301L311.834 304.232L304.836 297.769L298.552 296.318Z" fill="#54907C"/>
<path d="M288.965 297.582C289.727 300.191 290.52 302.792 291.204 305.423C291.238 305.441 291.27 305.464 291.3 305.491C291.382 305.516 291.469 305.553 291.56 305.605C292.125 305.925 292.722 306.181 293.324 306.425C293.56 306.514 293.796 306.607 294.033 306.698C294.679 304.459 295.263 302.206 295.829 299.945C295.83 299.937 295.831 299.929 295.832 299.922H290.838L288.965 297.582Z" fill="#406355"/>
<path d="M271.996 294L267.151 301L266.611 310.694H261.766L259.076 317.157L251 318.235L259.076 321.466L271.456 320.388L280.054 325.225C280.643 323.863 281.246 322.506 281.866 321.158C281.975 320.921 282.083 320.685 282.192 320.449C282.453 319.626 282.675 318.793 282.843 317.949C282.071 317.863 281.296 317.78 280.536 317.616C280.332 317.572 280.156 317.508 280.011 317.432C279.411 317.909 278.548 317.384 278.767 316.124C279.186 313.72 279.554 311.311 279.835 308.887C279.88 308.493 279.924 308.099 279.969 307.705C280.061 306.889 280.496 306.5 280.912 306.496C281.014 306.495 281.116 306.517 281.21 306.562C281.244 306.412 281.361 306.281 281.553 306.221C281.634 306.164 281.722 306.136 281.808 306.135C281.892 306.134 281.975 306.158 282.048 306.208C282.069 306.212 282.089 306.219 282.111 306.223C283.265 306.509 284.431 306.73 285.604 306.92C285.658 306.928 285.711 306.935 285.765 306.943H289.763C288.986 303.794 288.026 300.694 287.123 297.58C287.067 297.386 287.041 297.208 287.037 297.047L278.994 296.153L271.996 294Z" fill="#406355"/>
</g>
<path d="M367.355 95.7449L347 116.991L354.079 155.945L376.206 179.849L384.17 224.116L405.018 222.263C404.736 218.6 404.453 214.937 404.175 211.274C403.552 202.253 403.074 193.203 402.05 184.219C401.938 183.24 402.43 182.676 402.918 182.679C403.156 182.681 403.395 182.817 403.562 183.106C403.667 182.941 403.818 182.775 404.026 182.616C408.575 179.138 413.005 175.51 417.487 171.948C421.473 168.888 425.467 165.84 429.335 162.633C429.715 162.318 430.087 162.189 430.395 162.193C430.718 162.197 430.97 162.347 431.089 162.577C435.984 161.213 440.887 159.878 445.794 158.561C449.239 157.643 452.691 156.755 456.161 155.94C456.251 155.789 456.341 155.638 456.431 155.486C458.196 152.552 460.114 149.724 461.999 146.868C462.198 146.565 462.416 146.369 462.629 146.264C462.046 144.14 461.459 142.013 460.605 139.981C460.449 139.607 460.412 139.277 460.457 139.011C459.522 139.195 459.029 138.133 460.113 137.242C463.078 134.805 465.951 132.263 468.858 129.759C469.268 129.399 469.681 129.046 470.102 128.702C470.099 128.394 470.218 128.024 470.508 127.644C473.439 123.799 475.835 119.581 478.251 115.403C479.601 112.869 480.962 110.336 482.235 107.761L473.557 108.137L471.788 113.451L435.501 102.826L428.422 114.335L391.252 123.188L367.355 95.7449Z" fill="#406355"/>
<path d="M518.308 177.479C516.249 182.259 514.046 186.979 512.037 191.783C510.786 194.85 509.666 197.969 508.496 201.068C508.982 201.471 508.813 202.308 507.714 202.63C505.709 203.218 503.674 203.727 501.705 204.42C500.776 204.747 500.163 204.372 500.097 203.877C500.061 204.053 499.984 204.248 499.863 204.455C496.276 210.56 492.669 216.654 489.079 222.758C487.212 225.97 485.375 229.2 483.535 232.429L486.833 232.083L495.684 237.394L493.912 252.445L525.775 239.164L534.625 253.331L544.359 232.969L533.74 224.116L544.412 208.51C544.187 208.468 543.947 208.423 543.69 208.376C537.303 207.323 530.891 206.148 524.387 206.409C524.02 206.424 523.73 206.358 523.517 206.243C523.1 206.287 522.62 205.947 522.439 205.142C521.634 201.572 522.043 203.414 521.217 199.611C520.298 195.3 519.306 191.002 518.007 186.787C517.717 185.844 518.122 185.254 518.623 185.216C518.765 185.206 518.914 185.24 519.057 185.322C519.097 185.253 519.142 185.182 519.194 185.11C519.691 184.423 520.175 183.726 520.65 183.023C520.561 182.904 520.478 182.763 520.405 182.594C519.738 181.057 519.333 179.413 518.507 177.951C518.414 177.786 518.348 177.627 518.308 177.479Z" fill="#406355"/>
<path d="M504.42 125.968C498.813 126.448 493.248 127.319 487.684 128.154C482.833 128.958 477.983 130.126 473.057 130.272C472.315 130.294 471.888 129.99 471.775 129.628C471.175 130.1 470.595 130.599 470.013 131.1C467.186 133.535 464.39 136.007 461.511 138.383C461.761 138.502 462.007 138.76 462.19 139.188C463.261 141.684 463.926 144.331 464.653 146.941C465.041 148.331 463.952 148.897 463.293 148.112C461.618 150.657 459.913 153.179 458.324 155.779C458.992 156.151 458.859 157.133 457.622 157.417C457.515 157.442 457.407 157.468 457.299 157.493L457.194 157.67C456.573 158.713 455.652 158.599 455.442 157.93C452.368 158.667 449.309 159.459 446.254 160.272C440.819 161.731 435.395 163.224 429.969 164.713C429.795 164.76 429.637 164.784 429.494 164.789C425.918 167.728 422.236 170.535 418.565 173.354C414.082 176.918 409.65 180.543 405.101 184.022C404.607 184.401 404.152 184.467 403.834 184.348C404.868 193.245 405.324 202.214 405.941 211.15C406.219 214.802 406.499 218.455 406.779 222.106L423.995 220.574L423.112 238.28L455.856 223.23L470.019 233.852L481.365 232.658C483.42 229.055 485.47 225.448 487.555 221.861C491.124 215.792 494.704 209.728 498.278 203.663C498.612 203.096 499.042 202.855 499.403 202.852C499.793 202.85 500.102 203.126 500.123 203.577C500.215 203.274 500.509 202.969 501.049 202.777C502.886 202.122 504.78 201.63 506.656 201.093C506.674 200.939 506.715 200.772 506.782 200.593C507.98 197.425 509.124 194.235 510.404 191.098C512.458 186.191 514.706 181.368 516.816 176.487C517.099 175.833 517.543 175.538 517.924 175.525C518.332 175.511 518.669 175.82 518.659 176.363C518.752 176.314 518.857 176.288 518.969 176.285C519.323 176.277 519.742 176.513 520.057 177.09C520.787 178.428 521.249 179.873 521.79 181.293C522.702 179.88 523.581 178.446 524.45 177.007C524.612 176.721 524.771 176.434 524.932 176.149C524.696 176.117 524.429 176.012 524.145 175.808C520.618 173.268 516.902 171.009 513.354 168.497C513.246 168.42 513.153 168.34 513.071 168.26C512.763 168.134 512.494 167.77 512.433 167.139C511.876 161.423 511.427 155.701 510.787 149.993C510.61 148.713 510.435 147.432 510.257 146.153C508.928 147.406 507.442 148.488 505.972 149.569C504.853 150.392 503.962 149.664 504.345 148.811C503.962 148.719 503.63 148.288 503.648 147.516C503.753 143.143 503.988 138.774 504.153 134.402C504.253 131.59 504.346 128.78 504.42 125.968Z" fill="#54907C"/>
<path d="M542.232 79.9191C542.183 80.071 542.109 80.2329 542.002 80.4013C538.971 85.1748 536.238 90.1287 533.75 95.2072C532.391 97.9257 530.995 100.724 529.621 103.434C528.112 106.411 526.703 109.573 524.614 112.207C524.758 112.656 524.42 113.228 523.506 113.401C520.846 113.903 518.148 114.365 515.537 115.105C515.747 115.75 515.093 116.376 513.982 115.943C513.82 115.88 513.657 115.817 513.495 115.754C513.396 115.789 513.298 115.824 513.2 115.86C512.037 116.287 511.305 115.631 511.555 114.989C508.367 113.726 505.192 112.435 502.013 111.149C498.468 109.818 494.885 108.612 491.313 107.367H491.31L484.247 107.673C482.836 110.584 481.306 113.439 479.782 116.291C477.715 119.866 475.667 123.478 473.276 126.851C473.968 126.976 474.19 127.823 473.357 128.49C478.081 128.293 482.738 127.179 487.394 126.407C493.321 125.516 499.252 124.589 505.23 124.125C505.34 124.116 505.442 124.114 505.538 124.12C506.674 124.184 506.929 125.159 506.197 125.637C506.197 125.663 506.198 125.69 506.197 125.718C506.121 128.635 506.026 131.551 505.922 134.467C505.758 138.817 505.525 143.166 505.42 147.516C505.417 147.615 505.409 147.709 505.397 147.796C506.91 146.685 508.419 145.553 509.72 144.194C510.061 143.838 510.405 143.68 510.697 143.666C511.253 143.641 511.618 144.139 511.403 144.772C511.682 144.934 511.923 145.29 512.001 145.858C512.183 147.17 512.365 148.483 512.546 149.796C513.182 155.473 513.636 161.163 514.179 166.848C514.182 166.875 514.183 166.9 514.184 166.927C514.234 166.956 514.285 166.989 514.336 167.025C517.903 169.547 521.631 171.822 525.177 174.371C525.537 174.63 525.739 174.914 525.818 175.179C525.912 175.141 526.006 175.121 526.096 175.116C526.118 175.115 526.139 175.115 526.161 175.116C526.748 175.133 527.147 175.831 526.608 176.785C526.394 177.164 526.179 177.544 525.965 177.923C524.261 180.745 522.516 183.549 520.577 186.216C520.347 186.533 520.099 186.722 519.865 186.812C521.099 190.901 522.058 195.067 522.949 199.242C523.764 203.001 523.375 201.233 524.148 204.66C524.224 204.649 524.303 204.64 524.387 204.637C530.987 204.375 537.496 205.56 543.978 206.629C544.508 206.727 544.966 206.812 545.366 206.886L547.9 198.439L539.935 197.556L538.164 184.275L571.796 166.568L572.679 154.176L566.486 151.518L579.76 121.419L606.311 124.074L575.337 95.7449L584.187 86.8916L581.121 83.0242C577.961 82.6165 574.8 82.217 571.639 81.82C565.351 81.0917 562.101 80.6233 555.927 80.2422C551.064 79.942 550.159 80.0581 545.659 80.0302C542.911 80.0131 543.467 80.0933 542.232 79.9191Z" fill="#2F7462"/>
<path d="M520.463 32L516.039 66.5294L504.534 69.1851L494.132 106.469C496.973 107.452 499.815 108.432 502.634 109.491C506.267 110.959 509.897 112.435 513.543 113.868C516.509 112.871 519.626 112.328 522.699 111.752C522.73 111.712 522.764 111.671 522.8 111.631C523.01 111.396 523.246 111.183 523.431 110.927C525.275 108.366 526.627 105.429 528.046 102.629C529.453 99.8534 530.774 97.1976 532.165 94.4146C534.679 89.2817 537.446 84.2773 540.508 79.4521C540.575 79.3459 540.646 79.2513 540.717 79.1694C540.569 78.6825 541.021 78.1267 541.916 78.1218C542.014 78.1212 542.118 78.1259 542.227 78.1394C543.806 78.3365 542.873 78.2487 545.681 78.2606C550.046 78.2792 551.294 78.1838 555.99 78.4727C562.242 78.8572 565.475 79.3239 571.841 80.0605C574.409 80.383 576.978 80.7085 579.546 81.0375L563.831 61.2155L577.991 48.8229L562.945 34.6557L520.463 32Z" fill="#406063"/>
<path d="M257.025 242.294C251.726 245.899 245.982 248.83 240.399 251.97C237.184 253.915 233.84 255.711 230.974 258.165C230.961 258.176 230.948 258.186 230.936 258.196C231.419 261.176 231.714 264.188 231.862 267.203C231.888 267.299 231.892 267.399 231.875 267.498C231.931 268.868 230.855 269.155 230.353 268.362C229.789 268.421 229.224 268.482 228.66 268.541C224.317 268.941 219.961 269.211 215.598 269.137C215.252 269.13 214.976 269.056 214.767 268.942C213.683 270.12 212.676 271.367 211.691 272.628L224.796 281.532L236.301 299.238L250.904 291.713L266.392 290.385L273.174 252.283C272.591 251.928 272.008 251.574 271.425 251.218C266.826 248.375 262.112 245.717 257.563 242.797C257.317 242.639 257.141 242.466 257.025 242.294Z" fill="#2F7462"/>
<path d="M154.205 201.653C151.064 203.896 147.904 206.112 144.742 208.325L159.303 227.526L180.544 240.807L177.889 249.661L210.225 271.631C211.415 270.104 212.632 268.599 213.975 267.2C214.216 266.949 214.457 266.798 214.681 266.726C214.518 266.575 214.369 266.358 214.25 266.067C213.132 263.339 212.053 260.595 211.004 257.84C210.851 257.438 210.835 257.094 210.906 256.83C210.696 256.872 210.443 256.872 210.151 256.81C207.743 256.298 205.308 255.858 202.964 255.091C202.525 254.947 202.236 254.722 202.078 254.48C201.617 254.613 201.05 254.246 200.933 253.308C200.698 251.443 200.458 249.573 200.097 247.727C199.87 248.032 199.369 248.193 198.674 247.964C198.14 247.788 197.605 247.612 197.071 247.437C193.902 246.257 190.721 245.109 187.689 243.599C186.612 243.063 186.647 242.148 187.282 241.88C187.418 241.735 187.602 241.598 187.843 241.479C190.893 239.973 193.694 238.017 196.443 236.026C196.661 235.868 196.869 235.767 197.061 235.716C193.334 233.105 189.706 230.367 186.147 227.531C185.553 227.025 184.958 226.518 184.365 226.012C184.266 225.927 184.18 225.842 184.108 225.757H179.31C178.142 225.757 177.752 224.971 178.142 224.446C177.774 224.595 177.224 224.471 176.721 223.904C172.617 219.28 168.184 214.963 163.704 210.708C161.158 208.316 158.656 205.876 156.257 203.337C155.876 203.609 155.235 203.471 154.781 202.668C154.513 202.194 154.334 201.881 154.205 201.653Z" fill="#54907C"/>
<path d="M233.646 188.576C226.827 190.204 219.878 191.63 213.412 194.383C213.369 194.682 213.325 194.981 213.283 195.281C212.744 199.344 212.021 203.382 211.59 207.457C211.406 209.2 209.647 209.006 209.831 207.262C209.833 207.234 209.837 207.205 209.841 207.177C209.686 207.105 209.523 207.001 209.359 206.859C207.674 205.392 206.132 203.79 204.895 201.918C204.73 201.668 204.637 201.433 204.6 201.221C204.507 201.318 204.394 201.411 204.262 201.502C201.884 203.128 203.129 202.281 200.516 204.039C196.003 207.204 191.588 210.504 187.048 213.629C186.967 213.982 186.613 214.33 185.943 214.467C185.283 214.602 184.624 214.737 183.964 214.871C180.458 215.485 176.842 215.993 173.529 217.332C173.39 217.389 173.256 217.428 173.128 217.456C174.839 219.211 176.515 221.002 178.137 222.841C178.607 223.373 178.654 223.863 178.468 224.171C178.678 224.057 178.959 223.987 179.311 223.987H184.84C185.907 223.987 186.325 224.642 186.092 225.156C186.478 225.485 186.863 225.815 187.25 226.145C190.808 228.981 194.435 231.719 198.162 234.327C199.231 235.075 198.915 236.051 198.091 236.087C198.26 236.452 198.12 236.997 197.481 237.46C194.95 239.292 192.375 241.091 189.612 242.559C192.244 243.78 194.972 244.766 197.69 245.778C198.202 245.946 198.715 246.112 199.227 246.28C199.675 246.427 199.962 246.657 200.11 246.904C200.225 246.523 200.503 246.324 200.807 246.323C201.226 246.322 201.695 246.701 201.854 247.507C202.218 249.353 202.454 251.221 202.689 253.086C202.698 253.156 202.704 253.223 202.707 253.288C202.763 253.283 202.82 253.282 202.881 253.283C203.05 253.288 203.241 253.321 203.449 253.389C205.753 254.145 208.151 254.574 210.52 255.078C211.388 255.262 211.723 255.798 211.618 256.234C211.984 256.238 212.398 256.524 212.647 257.181C213.695 259.931 214.772 262.672 215.888 265.395C216.22 266.205 215.978 266.776 215.57 266.945C215.657 267.059 215.71 267.205 215.719 267.369C219.988 267.436 224.247 267.168 228.496 266.776C229.017 266.721 229.539 266.667 230.06 266.612C229.887 263.608 229.571 260.606 229.048 257.643C228.887 256.726 229.304 256.21 229.775 256.186C229.963 256.177 230.158 256.246 230.33 256.398C233.174 254.088 236.395 252.301 239.534 250.425C245.171 247.255 250.97 244.302 256.309 240.646C256.67 240.398 257.008 240.298 257.29 240.305C257.796 240.318 258.122 240.668 258.07 241.108C258.235 241.157 258.41 241.238 258.592 241.355C263.113 244.246 267.79 246.888 272.356 249.711C272.651 249.891 272.947 250.071 273.242 250.251L273.472 243.463L267.276 237.265L277.012 228.412L261.966 207.164L246.035 202.738L233.646 189.457L233.646 188.576Z" fill="#406355"/>
<path d="M207.335 164.359C203.974 165.003 200.618 165.678 197.263 166.359C197.134 166.385 197.014 166.4 196.902 166.404C196.875 166.71 196.685 167.063 196.271 167.389C193.186 169.819 190.144 172.305 186.997 174.657C186.01 175.394 185.194 174.912 185.284 174.197C185.111 174.181 184.918 174.135 184.708 174.048C181.145 172.573 177.546 171.197 174.051 169.565C173.6 169.346 173.15 169.127 172.698 168.908C172.545 168.834 172.415 168.753 172.305 168.666C172.244 168.848 172.141 169.04 171.989 169.239C171.378 170.042 170.769 170.848 170.165 171.655C170.407 171.866 170.222 172.149 169.905 172.001C167.802 174.816 165.74 177.662 163.714 180.534C161.921 183.251 160.087 185.949 158.097 188.526C157.386 189.446 156.53 189.276 156.348 188.655C154.51 189.142 152.642 189.487 150.806 189.993C152.104 192.821 153.184 195.739 154.556 198.538C154.756 198.921 154.905 199.208 155.02 199.432C155.374 199.535 155.58 199.849 155.533 200.224C155.761 200.302 156.005 200.461 156.244 200.722C159.013 203.745 161.936 206.616 164.923 209.423C167.293 211.674 169.649 213.941 171.951 216.262C172.085 216.117 172.281 215.98 172.547 215.861C176.034 214.303 179.919 213.782 183.658 213.127C184.267 213.002 184.877 212.877 185.486 212.753C185.599 212.553 185.783 212.351 186.053 212.165C190.586 209.044 194.995 205.748 199.502 202.587C202.139 200.813 200.886 201.665 203.262 200.04C203.578 199.824 203.872 199.724 204.125 199.712C204.577 199.69 204.893 199.945 204.955 200.303C205.06 200.245 205.181 200.215 205.311 200.217C205.643 200.222 206.036 200.434 206.368 200.936C207.412 202.511 208.682 203.884 210.081 205.137C210.51 201.768 211.082 198.416 211.529 195.049C211.57 194.755 211.612 194.46 211.653 194.166C211.541 193.933 211.567 193.641 211.771 193.37C211.923 192.684 212.332 192.365 212.715 192.371C212.882 192.373 213.045 192.437 213.18 192.56C219.732 189.831 226.762 188.41 233.646 186.756V168.212L214.174 169.095L207.335 164.359Z" fill="#406063"/>
<path d="M130.075 82.3147C131.03 88.8078 131.855 95.3422 133.123 101.776C133.301 101.714 133.468 101.682 133.618 101.675C134.706 101.619 135.008 102.863 133.658 103.467C133.551 103.515 133.444 103.563 133.338 103.611C133.187 104.422 132.537 104.732 132.066 104.179C131.268 104.536 130.471 104.895 129.673 105.252C127.244 106.444 124.866 107.737 122.423 108.9C123.511 110.084 124.583 111.282 125.671 112.467C125.82 111.912 126.166 111.65 126.509 111.656C126.977 111.664 127.435 112.17 127.357 113.098C127.326 113.464 127.298 113.83 127.271 114.196C127.814 114.891 127.636 115.538 127.167 115.726C126.994 118.578 126.912 121.435 126.834 124.291C127.641 124.743 127.595 125.544 126.968 125.814C127.632 127.64 128.432 129.41 129.254 131.17C129.292 131.251 129.324 131.329 129.35 131.405C130.58 130.933 131.814 130.479 133.075 130.1C133.138 129.695 133.43 129.436 133.799 129.451C134.014 129.46 134.252 129.562 134.488 129.782C134.493 129.782 134.5 129.782 134.506 129.782C135.297 129.802 135.638 130.403 135.351 130.923C138.11 134.848 140.576 138.973 143.066 143.071C144.78 145.734 143.937 144.481 145.582 146.84C146.373 147.973 145.638 148.844 144.8 148.455C144.704 148.706 144.493 148.967 144.141 149.2C143.307 149.753 142.502 150.346 141.686 150.924V150.927H141.688H141.691L141.693 150.929C146.761 154.023 151.488 157.625 156.315 161.073C159.843 163.64 163.449 166.093 167.063 168.535C167.344 168.725 167.534 168.933 167.646 169.138C167.812 169.188 168.215 169.509 168.237 169.527C168.353 169.619 168.465 169.715 168.58 169.81C168.632 169.857 168.874 170.072 169.029 170.219C169.56 169.513 170.093 168.808 170.629 168.106C170.962 167.67 171.324 167.481 171.631 167.47C171.732 167.466 171.827 167.483 171.914 167.515C172.04 167.278 172.309 167.113 172.678 167.111C172.907 167.11 173.175 167.17 173.471 167.313C173.914 167.528 174.357 167.744 174.801 167.959C178.249 169.571 181.798 170.926 185.312 172.385C185.746 172.565 186.019 172.818 186.157 173.076C189.214 170.782 192.174 168.363 195.176 165.998C195.422 165.805 195.658 165.689 195.873 165.637C195.89 165.222 196.276 164.762 197.067 164.599C199.807 164.034 202.55 163.482 205.296 162.948L202.669 161.128L218.601 151.389L210.634 147.85L219.484 142.538L206.21 128.371L192.05 110.664L186.74 115.978L182.314 102.697L164.613 100.928L168.154 89.4186L141.603 85.8768V93.844L131.867 84.1072L130.075 82.3147Z" fill="#54907C"/>
<path d="M115.168 123.403C117.453 125.822 119.877 128.152 121.709 130.936C122.668 132.394 121.164 133.261 120.185 131.832C120.082 132.223 119.622 132.554 118.829 132.496C116.851 132.349 114.872 132.21 112.901 131.983C112.545 131.942 112.272 131.837 112.076 131.696C112.003 131.729 111.923 131.76 111.839 131.789C107.853 133.133 103.908 134.62 99.8518 135.74L101.777 141.652L107.087 139.88L134.524 177.949L144.257 197.427L139.833 201.853L143.669 206.912C146.909 204.645 150.145 202.374 153.362 200.075C153.257 199.872 153.13 199.624 152.969 199.315C151.525 196.364 150.393 193.29 149.007 190.316C148.598 189.438 148.898 188.804 149.373 188.68C149.528 188.565 149.727 188.464 149.978 188.39C152.33 187.694 154.751 187.341 157.09 186.6C157.197 186.566 157.302 186.541 157.4 186.524C159.11 184.251 160.694 181.883 162.268 179.514C164.152 176.845 166.066 174.198 168.015 171.577C167.521 171.144 167.041 170.696 166.561 170.249C166.407 170.196 166.244 170.116 166.074 170.002C162.447 167.551 158.828 165.087 155.288 162.512C150.509 159.098 145.829 155.534 140.815 152.467C140.062 152.006 139.912 151.386 140.139 151.003C139.853 150.642 139.944 149.991 140.686 149.46C141.507 148.873 142.322 148.285 143.162 147.726C143.404 147.565 143.632 147.473 143.838 147.433C142.54 145.574 143.193 146.537 141.555 143.99C139.043 139.856 136.552 135.7 133.769 131.741C132.212 132.196 130.703 132.785 129.184 133.359C127.815 133.876 127.04 132.869 127.773 132.152C127.73 132.081 127.689 132.004 127.649 131.92C126.918 130.353 126.205 128.778 125.585 127.164C125.261 127.005 125.003 126.581 125.022 125.897C125.025 125.804 125.028 125.71 125.03 125.617C125.022 125.588 125.014 125.559 125.007 125.531C124.819 125.472 124.631 125.415 124.442 125.357C121.369 124.636 118.266 124.013 115.168 123.403Z" fill="#406355"/>
<path d="M76.1122 36.3142C72.2317 40.9072 68.2457 45.4544 63.6379 49.3277C63.7142 49.4194 63.7884 49.524 63.8575 49.6433C65.3026 52.1387 66.8533 54.5769 68.3596 57.0374C68.7067 57.6044 68.7048 58.0886 68.5186 58.3905C68.8204 58.916 69.1216 59.4423 69.4221 59.9683C69.646 60.3604 69.7084 60.7085 69.6643 60.9831C69.8216 61.185 69.943 61.4733 69.9899 61.8515C70.8775 69.0128 71.3624 76.214 72.0264 83.3977C72.1882 85.3785 72.4285 87.3475 72.7356 89.3049V89.3075L89.3864 103.583L99.3042 134.056C103.356 132.942 107.294 131.452 111.274 130.11C111.481 130.04 111.673 130.006 111.844 129.999C112.171 129.986 112.428 130.077 112.599 130.226C112.666 130.217 112.736 130.213 112.811 130.211C112.907 130.209 113.012 130.214 113.121 130.226C115.062 130.449 117.01 130.585 118.958 130.729C119.152 130.743 119.323 130.777 119.47 130.827C117.603 128.332 115.302 126.169 113.192 123.88C112.738 123.387 112.647 122.907 112.775 122.575C112.354 122.014 112.704 121.277 113.701 121.333C113.797 121.338 113.897 121.352 114.004 121.373C117.624 122.074 121.251 122.792 124.843 123.632C124.923 123.657 125.003 123.681 125.083 123.706C125.163 120.746 125.251 117.785 125.451 114.832C123.839 113.113 122.282 111.352 120.682 109.624C119.757 109.767 119.279 109.047 119.72 108.415C119.47 107.78 119.788 107.264 120.308 107.234C120.552 107.219 120.838 107.311 121.133 107.547C123.755 106.323 126.297 104.937 128.894 103.662C129.735 103.284 130.578 102.907 131.42 102.531C131.394 102.441 131.37 102.351 131.349 102.26C131.042 100.937 130.667 98.1982 130.499 97.0954C129.695 91.8294 128.923 86.5601 128.131 81.2924C128.068 80.9233 128.005 80.5537 127.945 80.1841L100.892 53.1195L76.1122 38.0687V36.3142Z" fill="#2F7462"/>
<path d="M12.3884 0L0 2.65572L3.53811 18.5926L30.9748 49.5777H39.8251L60.1806 72.5956L61.0664 88.5325L70.7091 87.654C70.5268 86.2951 70.3768 84.9317 70.265 83.5618C69.601 76.3772 69.1132 69.1728 68.2259 62.0106C68.1925 61.7412 68.2053 61.5086 68.2536 61.3164C68.1189 61.1934 67.9902 61.0324 67.8726 60.8266C66.3954 58.2413 64.8995 55.6685 63.4386 53.074C63.2085 52.6654 63.1492 52.3026 63.2039 52.0213C62.8899 51.4949 62.5806 50.9674 62.2752 50.436C62.2427 50.3794 62.2128 50.3238 62.1869 50.2694C61.2575 50.4347 60.7648 49.3951 61.8437 48.5149C67.1971 44.1473 71.6826 38.8357 76.1122 33.5651V29.2155L69.0309 28.3319L68.1451 16.8229L56.64 7.96969L21.2387 9.73933L12.3884 0Z" fill="#406063"/>
<path d="M615.985 175.372L613.391 180.565L616.046 191.188L601 218.634L604.541 239.88L616.392 232.768V232.766C618.74 224.433 621.368 216.182 623.586 207.812C624.947 202.257 626.339 196.646 626.665 190.915C626.709 190.146 627.073 189.716 627.46 189.623C627.452 189.611 627.445 189.599 627.437 189.588C624.032 184.535 620.048 179.911 615.985 175.372Z" fill="#406063"/>
<path d="M656.27 219.212L652.33 231.913L670.031 249.619L666.49 265.553L688.617 269.981L685.962 255.817L705.584 255.811L706.318 244.308L690.386 235.454C690.386 235.454 693.661 230.687 695.721 226.339C688.33 224.093 680.924 221.656 673.279 220.474C673.212 220.464 673.15 220.451 673.089 220.436C672.892 220.471 672.659 220.468 672.393 220.416C669.358 219.822 670.932 220.086 667.671 219.641C663.882 219.301 660.072 219.059 656.27 219.212Z" fill="#406355"/>
<path d="M628.434 190.9C628.434 190.905 628.435 190.911 628.434 190.915C628.122 196.789 626.698 202.539 625.305 208.231C623.054 216.734 620.38 225.116 618.002 233.584V233.586L621.356 263.784L613.391 286.802L643.48 289.457L637.285 217.748L660.295 206.239L656.825 217.422C658.009 217.388 659.194 217.389 660.378 217.417C662.865 217.477 665.351 217.657 667.828 217.879C671.173 218.333 669.599 218.07 672.648 218.664C672.846 218.434 673.045 218.202 673.244 217.972C674.606 216.157 675.909 214.298 677.213 212.441C677.144 212.417 677.074 212.389 677.001 212.356C669.61 208.931 662.371 205.194 655.018 201.69C646.964 197.934 638.931 193.849 630.415 191.249C630.198 191.182 630.016 191.096 629.865 190.996C629.389 190.949 628.912 190.914 628.434 190.9Z" fill="#54907C"/>
<path d="M652.33 106.198L632.861 126.56C632.861 126.56 623.126 161.086 624.896 157.545L616.836 173.671C621.082 178.401 625.267 183.209 628.82 188.482C628.947 188.671 629.034 188.855 629.088 189.027C629.584 189.133 630.069 189.293 630.549 189.459C630.617 189.473 630.687 189.49 630.761 189.512C630.934 189.564 631.095 189.653 631.268 189.706C639.739 192.314 647.748 196.346 655.765 200.084C663.117 203.586 670.356 207.325 677.746 210.748C677.954 210.844 678.121 210.956 678.253 211.076C678.502 210.865 678.761 210.766 678.99 210.758C679.645 210.733 680.07 211.446 679.411 212.388C677.878 214.581 676.348 216.776 674.745 218.919C682.122 220.179 689.287 222.539 696.441 224.708C697.442 222.227 697.807 220.13 696.582 219.518C693.042 217.747 669.145 189.419 669.145 189.419L706.318 166.398L718.706 170.826L724.902 159.317L690.386 160.203L677.112 165.515L675.341 159.317L657.64 177.907L632.861 156.661L641.711 130.988L666.177 130.374C664.96 127.594 663.778 124.799 662.422 122.086C661.933 121.106 662.338 120.386 662.904 120.365C663.068 120.358 663.244 120.409 663.417 120.529C663.546 120.433 663.703 120.346 663.891 120.271C670.015 117.841 676.439 116.36 682.856 114.922L652.33 106.198Z" fill="#2F7462"/>
<path d="M686.409 115.937C679.04 117.603 671.592 119.125 664.547 121.917C664.477 121.945 664.409 121.969 664.343 121.988C665.684 124.724 666.861 127.537 668.09 130.326L712.513 129.216L720.006 137.395C720.682 135.602 721.333 133.801 721.821 131.955C720.236 129.7 718.089 127.849 716.501 125.59C714.491 122.968 712.541 120.301 710.55 117.664L689.501 116.82L686.412 115.937L686.409 115.937Z" fill="#406063"/>
<path d="M765.613 100L733.752 118.593L712.831 117.754C714.521 120.008 716.193 122.277 717.906 124.512C719.275 126.381 720.944 128.021 722.401 129.819C722.622 129.43 722.942 129.251 723.236 129.263C723.709 129.283 724.111 129.794 723.928 130.707C723.866 131.014 723.8 131.318 723.728 131.621C724.315 132.551 723.904 133.275 723.289 133.28C722.74 135.167 722.044 137.014 721.346 138.856L722.247 139.841L747.029 131.871L765.613 100Z" fill="#406355"/>
<path d="M692.157 264.669L691.272 280.605L703.662 288.573L715.167 276.178L707.622 272.534L709.598 261.911L715.167 271.752L711.627 254.515L705.611 257.815L701.628 271.13L700.122 261.128L692.157 264.669Z" fill="#406355"/>
<path d="M677.996 270.867L678.881 285.032C678.881 285.032 692.157 284.146 688.617 281.49C685.077 278.834 677.996 270.867 677.996 270.867Z" fill="#406355"/>
<path d="M703.662 181.449L711.627 192.073L726.673 184.105L721.363 175.252L707.202 170.826L703.662 181.449Z" fill="#406355"/>
<path d="M1108.27 335.576L1090.28 341.574L1077.89 361.05L1107.1 363.706L1111.13 361.237C1110.68 361.1 1110.4 360.502 1110.77 359.651C1111.17 358.751 1111.56 357.85 1111.95 356.95C1113.75 352.662 1115.58 348.381 1117.12 343.992C1116.93 343.908 1116.74 343.77 1116.54 343.568C1116.26 343.278 1115.98 342.99 1115.7 342.7C1113.44 340.599 1111.11 338.576 1108.83 336.507C1108.48 336.192 1108.31 335.864 1108.27 335.576Z" fill="#2F7462"/>
<path d="M1089.49 260.219C1089.81 263.193 1090.69 266.086 1091.63 268.918C1091.73 269.239 1091.75 269.518 1091.72 269.748C1091.82 270.144 1091.58 270.659 1090.84 270.978C1086.18 272.989 1081.52 274.989 1076.79 276.837L1091.17 284.027L1107.98 315.898L1106.21 325.637L1111.52 334.49L1109.84 335.051C1109.89 335.086 1109.93 335.123 1109.98 335.164C1112.29 337.248 1114.63 339.286 1116.91 341.402L1117.77 342.288C1117.99 341.944 1118.28 341.787 1118.54 341.783C1119.08 341.777 1119.53 342.398 1119.2 343.384C1117.57 348.227 1115.56 352.925 1113.59 357.635C1113.19 358.542 1112.79 359.45 1112.4 360.358C1112.37 360.411 1112.35 360.46 1112.33 360.507L1123.03 353.966H1145.15C1145.15 353.966 1169.93 388.496 1169.93 382.298V320.326L1161.97 315.898L1167.28 307.931L1167.96 270.978C1156.78 269.296 1145.61 267.55 1134.44 265.729C1119.51 263.516 1104.57 261.144 1089.49 260.219Z" fill="#406063"/>
<path d="M1093.27 225.439C1093.03 225.565 1092.7 225.622 1092.28 225.56C1092.19 225.547 1092.11 225.535 1092.02 225.522C1092.09 225.656 1092.14 225.814 1092.18 225.994C1092.73 228.595 1092.96 231.25 1093.22 233.893C1093.25 234.236 1093.21 234.518 1093.12 234.737C1094.96 235.39 1096.71 236.29 1098.46 237.147C1099.03 237.424 1099.29 237.808 1099.32 238.15C1099.72 238.3 1100.01 238.837 1099.83 239.657C1099.55 240.908 1099.21 242.132 1098.77 243.337C1098.33 244.534 1097.33 244.536 1097.05 243.817C1096.97 243.853 1096.89 243.888 1096.8 243.918C1094.98 244.528 1093.13 245.037 1091.31 245.662C1091.27 245.789 1091.23 245.92 1091.2 246.056C1091.15 246.29 1091 246.369 1090.89 246.321C1090.73 246.627 1090.58 246.935 1090.44 247.245C1090.43 247.343 1090.42 247.44 1090.41 247.538C1090.39 247.694 1090.35 248.014 1090.31 248.066L1090.31 248.068L1090.3 248.071V248.073H1090.3H1090.3H1090.3C1090.29 248.072 1090.28 248.071 1090.27 248.068C1090.23 248.328 1090.18 248.555 1090.18 248.566C1090.13 248.858 1090.07 249.148 1090.01 249.436C1089.55 251.946 1089.13 254.464 1088.64 256.969C1088.62 257.108 1088.58 257.234 1088.54 257.346C1088.56 257.424 1088.57 257.501 1088.59 257.58C1088.65 257.624 1088.7 257.704 1088.74 257.795C1088.95 257.893 1089.15 258.106 1089.28 258.434C1089.28 258.434 1089.29 258.436 1089.3 258.436C1104.53 259.346 1119.62 261.742 1134.7 263.977C1145.79 265.786 1156.89 267.519 1167.99 269.19L1168.53 240.331C1158.42 238.119 1148.31 235.903 1138.18 233.78C1123.26 230.744 1108.31 227.819 1093.27 225.439Z" fill="#406355"/>
<path d="M1039.88 216.682L1028.33 231.793L1010.63 229.137L1007.54 216.793C1004.37 221.604 1001.1 226.363 997.601 230.948C997.58 230.975 997.559 231.001 997.538 231.026C997.577 231.021 997.619 231.018 997.661 231.015C997.831 231.008 998.024 231.03 998.237 231.083C1003.3 232.358 1008.07 234.535 1012.79 236.741C1015.66 238.107 1018.56 239.438 1021.5 240.651C1022.8 241.183 1022.63 242.332 1021.69 242.438C1021.66 242.486 1021.62 242.534 1021.59 242.582C1017.67 247.751 1013.94 253.053 1010.13 258.29C1010.01 258.444 1009.9 258.597 1009.78 258.751L1009.74 259.239L1061.07 268.975L1075.18 276.031C1075.28 275.725 1075.57 275.414 1076.1 275.208C1080.76 273.389 1085.34 271.419 1089.93 269.437C1088.89 266.247 1087.9 262.982 1087.66 259.617C1087.66 259.59 1087.65 259.562 1087.64 259.537C1087.59 259.369 1087.53 259.201 1087.48 259.034C1087.42 258.862 1087.37 258.689 1087.31 258.517C1087.29 258.461 1087.18 258.096 1087.1 257.782C1086.91 257.529 1086.81 257.121 1086.92 256.586C1087.31 254.578 1087.65 252.562 1088.01 250.55C1087.95 250.486 1087.92 250.364 1087.98 250.204C1088.12 249.839 1088.05 250.034 1088.18 249.598V249.595L1088.19 249.593C1088.19 249.587 1088.19 249.582 1088.19 249.578C1088.26 249.174 1088.33 248.771 1088.41 248.368C1088.45 248.159 1088.51 247.978 1088.58 247.828C1088.57 247.823 1088.57 247.819 1088.56 247.813L1088.55 247.81L1088.55 247.808L1088.55 247.805L1088.55 247.803L1088.54 247.8V247.797V247.795L1088.54 247.792V247.79V247.787V247.785C1088.55 247.75 1088.59 247.695 1088.59 247.658C1088.7 247.202 1088.8 246.747 1088.9 246.29C1088.9 246.29 1088.89 246.29 1088.88 246.29C1088.89 246.215 1088.94 246.025 1089.01 245.833C1089.02 245.782 1089.03 245.731 1089.04 245.679C1089.06 245.577 1089.03 245.426 1089.12 245.376C1089.12 245.374 1089.13 245.371 1089.13 245.369C1089.13 245.366 1089.13 245.362 1089.13 245.358H1089.13L1089.14 245.361H1089.14L1089.14 245.363C1089.18 245.35 1089.21 245.346 1089.25 245.346C1089.26 245.334 1089.28 245.326 1089.29 245.323C1089.3 245.319 1089.32 245.314 1089.33 245.313C1089.35 245.291 1089.36 245.269 1089.37 245.247C1089.39 245.212 1089.4 245.138 1089.42 245.111L1089.42 245.108L1089.43 245.105L1089.43 245.103H1089.43L1089.44 245.1H1089.44H1089.44H1089.44H1089.45H1089.45L1089.45 245.103L1089.45 245.105C1089.52 245.145 1089.57 245.201 1089.62 245.264C1089.66 245.252 1089.69 245.253 1089.73 245.27C1089.59 244.85 1089.86 244.287 1090.69 244C1092.53 243.363 1094.4 242.853 1096.24 242.235C1096.45 242.166 1096.64 242.13 1096.81 242.124C1097 242.118 1097.16 242.143 1097.3 242.195C1097.63 241.201 1097.89 240.191 1098.13 239.166C1098.15 239.075 1098.17 238.991 1098.2 238.913C1098.04 238.882 1097.87 238.825 1097.69 238.736C1095.93 237.88 1094.2 236.975 1092.35 236.336C1091.23 235.951 1091.09 235.059 1091.61 234.687C1091.54 234.515 1091.48 234.306 1091.45 234.056C1091.21 231.501 1090.99 228.935 1090.46 226.42C1090.36 225.943 1090.42 225.566 1090.57 225.306C1090.21 225.254 1089.85 225.202 1089.49 225.15C1085.72 224.583 1081.96 224.003 1078.24 223.188C1078.13 223.286 1077.99 223.378 1077.83 223.463C1075.61 224.635 1076.79 224.002 1074.28 225.362C1070.84 227.324 1067.4 229.299 1063.83 231.022C1063.69 231.228 1063.42 231.375 1063.06 231.39C1062.99 231.423 1062.92 231.456 1062.85 231.489C1061.88 231.941 1061.24 231.511 1061.25 230.938C1059.5 230.4 1060.3 230.646 1057.35 229.747C1052.7 228.433 1048.02 226.826 1043.18 226.478C1042.13 226.402 1041.71 225.735 1041.92 225.241C1041.87 225.094 1041.83 224.948 1041.82 224.9C1041.67 224.401 1041.55 223.891 1041.48 223.375C1040.94 221.704 1040.48 220.015 1040.2 218.276C1040.09 217.744 1039.99 217.213 1039.88 216.68L1039.88 216.682Z" fill="#2F7462"/>
<path d="M1087.63 182.215L1067.27 192.841L1071.7 202.578L1051.34 201.692L1041.32 214.793C1041.52 215.84 1041.72 216.885 1041.93 217.929C1042.2 219.562 1042.62 221.149 1043.13 222.718C1043.2 222.693 1043.27 222.676 1043.34 222.665H1043.34H1043.35H1043.35V222.667H1043.35H1043.35L1043.36 222.67L1043.36 222.672V222.675L1043.36 222.678C1043.37 222.7 1043.37 222.745 1043.38 222.769C1043.38 222.783 1043.39 222.825 1043.39 222.844C1043.41 222.931 1043.44 223.04 1043.47 223.193C1043.54 223.431 1043.62 223.664 1043.71 223.899C1043.83 224.186 1043.93 224.488 1044.05 224.781C1048.75 225.223 1053.3 226.769 1057.83 228.047C1061.27 229.095 1059.67 228.605 1062.78 229.564C1066.41 227.827 1069.91 225.822 1073.41 223.829C1075.64 222.614 1074.99 222.961 1076.33 222.256C1076.11 221.774 1076.39 221.252 1077.1 221.203C1077.26 221.192 1077.45 221.207 1077.67 221.256C1081.15 222.048 1084.67 222.63 1088.2 223.17C1088.38 223.061 1088.62 222.994 1088.93 222.998C1089.02 223 1089.13 223.007 1089.23 223.023C1105.76 225.515 1122.16 228.712 1138.53 232.043C1148.56 234.144 1158.56 236.334 1168.56 238.524L1169.05 212.317L1087.63 182.215Z" fill="#54907C"/>
<path d="M946.906 153L921.241 168.051L914.16 178.674L900 166.281L912.391 185.757L940.711 186.643L939.828 202.578L984.079 197.266L978.767 213.203L967.262 207.889L954.873 219.398L934.806 218.527C939.661 218.945 956.642 229.137 956.642 229.137L960.183 253.041L975.229 253.928L983.193 230.023L985.848 246.844H1010.63L1010.02 255.43C1013.29 250.908 1016.52 246.353 1019.89 241.896C1017.24 240.779 1014.63 239.577 1012.04 238.344C1007.44 236.192 1002.79 234.062 997.851 232.81C996.953 232.583 996.636 231.995 996.788 231.553C996.014 231.749 995.461 230.841 996.256 229.796C1000.02 224.853 1003.51 219.711 1006.92 214.521C1006.93 214.499 1006.94 214.477 1006.96 214.455V214.453L1004.43 204.35L1001.78 219.398L992.044 165.395L972.571 162.739L946.906 153Z" fill="#406355"/>
<path d="M924.085 254.949L931.165 269.114L930.28 277.082L935.59 267.343L924.085 254.949Z" fill="#2F7462"/>
<path d="M813.457 151.367L816.997 167.302H831.157L813.457 151.367Z" fill="#406063"/>
<path d="M993.117 293.017V322.233L1005.51 316.921L1009.05 301.87L1004.62 281.508L993.117 293.017Z" fill="#2F7462"/>
<path d="M954.176 286.82V297.444L962.141 301.87L973.646 276.196L960.371 294.788L954.176 286.82Z" fill="#2F7462"/>
<path d="M847.973 324.889L855.053 324.003L851.513 331.971L847.973 324.889Z" fill="#2F7462"/>
<path d="M826.732 353.219L847.973 354.99L841.778 358.531L826.732 353.219Z" fill="#2F7462"/>
<path d="M877.179 343.48L879.834 350.563L887.799 347.022L877.179 343.48Z" fill="#2F7462"/>
<path d="M927.625 324.003L907.269 357.645L921.43 352.334L937.36 330.201L927.625 324.003Z" fill="#2F7462"/>
<path d="M779.826 342.595C785.136 340.824 806.377 337.283 806.377 337.283L810.802 346.136L778.941 352.334L779.826 342.595Z" fill="#2F7462"/>
<path d="M825.847 230.16L841.778 216.88L863.903 217.765L865.673 223.077L871.868 216.88L903.729 223.077L911.694 240.784L907.269 245.21L884.259 230.16L874.523 229.274L877.179 236.357L859.478 228.389L857.708 244.325L835.582 241.669L847.088 232.816L839.123 223.077L836.467 235.472L825.847 230.16Z" fill="#2F7462"/>
<path d="M782.481 222.192L788.676 235.472L804.607 246.981L819.652 234.586L813.457 228.389L815.227 224.848L800.624 217.323L782.481 222.192Z" fill="#2F7462"/>
<path d="M880.719 193.862L897.534 186.779L895.764 199.174L880.719 193.862Z" fill="#406063"/>
<path d="M824.962 173.5L821.422 185.894L841.778 188.55L824.962 173.5Z" fill="#406063"/>
<path d="M836.468 84.9678L821.422 115.954L826.732 150.481L847.088 174.385L834.697 133.66L861.248 140.743L844.433 124.807L857.708 113.298L855.053 104.445L840.008 110.642L830.272 124.807L839.123 107.986V99.1328L832.042 97.3622L836.468 84.9678Z" fill="#406063"/>
<path d="M852.398 77L839.123 85.8532L846.203 99.1329L852.398 77Z" fill="#406063"/>
<path d="M744.425 185.894L740 197.403L796.641 192.976L744.425 185.894Z" fill="#406063"/>
<path d="M928.699 322.316L938.435 328.514L940.221 329.65L938.983 331.369L923.053 353.502L922.699 353.993L922.132 354.206L907.972 359.518L902.573 361.543L905.559 356.61L925.914 322.968L926.973 321.218L928.699 322.316ZM848.139 352.996L854.554 353.531L848.966 356.726L842.771 360.268L841.976 360.722L841.112 360.417L826.066 355.104L826.898 351.226L848.139 352.996ZM808.166 336.389L812.591 345.242L813.768 347.597L811.184 348.1L779.323 354.297L776.708 354.806L776.949 352.152L777.834 342.414L777.952 341.111L779.193 340.698C782.012 339.758 788.813 338.404 794.729 337.309C797.725 336.754 800.554 336.254 802.633 335.894C803.673 335.713 804.526 335.567 805.119 335.467C805.416 335.416 805.648 335.378 805.806 335.352C805.884 335.338 805.945 335.328 805.985 335.321C806.005 335.318 806.021 335.315 806.031 335.313C806.036 335.313 806.041 335.312 806.044 335.312C806.045 335.311 806.046 335.311 806.047 335.311H806.048L807.505 335.067L808.166 336.389ZM877.812 341.583L888.432 345.124L893.321 346.755L888.611 348.85L880.646 352.391L878.706 353.253L877.961 351.265L875.306 344.183L873.834 340.257L877.812 341.583ZM856.881 324.815L853.341 332.783L851.619 336.657L849.724 332.865L846.184 325.783L844.92 323.255L847.725 322.904L854.805 322.019L858.318 321.579L856.881 324.815ZM1006.58 281.083L1011 301.445L1011.1 301.888L1010.99 302.328L1007.45 317.379L1007.22 318.361L1006.29 318.759L993.904 324.071L991.117 325.267V292.189L991.702 291.604L1003.21 280.094L1005.8 277.503L1006.58 281.083ZM975.471 277.015L963.966 302.688L963.074 304.678L961.169 303.619L953.204 299.192L952.176 298.62V280.989L955.755 285.593L960.302 291.441L972.019 275.034L975.471 277.015ZM937.056 265.982L938.035 267.037L937.346 268.301L932.036 278.039L928.292 276.861L929.111 269.479L922.296 255.843L925.551 253.588L937.056 265.982ZM801.54 215.545L816.144 223.07L817.899 223.975L815.89 227.994L821.066 233.173L822.623 234.729L820.924 236.13L805.878 248.524L804.687 249.506L803.436 248.602L787.505 237.093L787.084 236.788L786.864 236.317L780.669 223.037L779.661 220.878L781.963 220.261L800.105 215.391L800.853 215.19L801.54 215.545ZM872.25 214.917L904.111 221.114L905.128 221.312L905.553 222.257L913.519 239.963L914.085 241.222L913.108 242.197L908.684 246.624L907.535 247.773L906.175 246.884L883.58 232.105L877.514 231.555L879.052 235.655L880.737 240.152L876.357 238.181L861.162 231.34L859.695 244.546L859.473 246.551L857.47 246.311L835.344 243.654L830.48 243.071L834.362 240.084L837.062 238.005L835.573 237.261L824.952 231.948L822.219 230.581L824.566 228.623L840.497 215.344L841.088 214.851L841.857 214.882L863.983 215.767L865.363 215.822L865.801 217.133L866.547 219.373L871.206 214.714L872.25 214.917ZM838.423 235.891L838.148 237.17L844.234 232.486L840.206 227.562L838.423 235.891ZM899.514 187.062L897.744 199.456L897.399 201.872L895.099 201.06L880.053 195.748L875.177 194.026L879.942 192.019L896.758 184.937L900.014 183.564L899.514 187.062ZM744.694 183.912L796.91 190.994L796.797 194.971L740.156 199.396L736.996 199.644L738.133 196.686L742.559 185.176L743.126 183.699L744.694 183.912ZM826.296 172.009L843.111 187.06L847.927 191.369L841.519 190.533L821.163 187.877L818.861 187.577L819.499 185.345L823.039 172.95L823.916 169.879L826.296 172.009ZM814.795 149.88L832.495 165.815L836.368 169.303H815.393L815.045 167.736L811.504 151.801L810.148 145.697L814.795 149.88ZM841.123 108.02L854.291 102.596L856.334 101.754L856.969 103.87L859.624 112.724L859.995 113.962L859.019 114.809L847.409 124.873L862.624 139.291L860.732 142.675L837.657 136.52L849.001 173.803L845.565 175.682L825.21 151.778L824.842 151.346L824.756 150.785L819.445 116.258L819.351 115.642L819.623 115.08L834.668 84.0938L836.808 84.9922L838.013 84.1895L851.288 75.3359L855.778 72.3418L854.324 77.5391L848.129 99.6719L846.784 104.475L844.438 100.074L837.705 87.4463L834.667 95.957L839.607 97.1924L841.123 97.5713V108.02Z" stroke="#09120A" stroke-width="4"/>
<path d="M510.823 349.3L524.436 357.729L526.388 358.938L524.923 360.705L521.79 364.488L521.084 365.341L519.985 365.194L519.138 365.081L512.429 369.788L512.622 371.529L512.891 373.944L510.469 373.743L506.579 373.419L503.12 373.13L505.104 370.282L506.498 368.28L498.821 362.373C498.497 362.41 498.104 362.455 497.696 362.499C496.767 362.6 495.541 362.726 495.078 362.727C494.595 362.727 494.235 362.559 494.069 362.472C493.881 362.372 493.735 362.261 493.641 362.183C493.451 362.026 493.288 361.851 493.167 361.712C492.915 361.423 492.641 361.056 492.375 360.679C491.834 359.91 491.195 358.911 490.596 357.943C489.992 356.968 489.41 355.997 488.98 355.271C488.765 354.907 488.588 354.603 488.464 354.391C488.402 354.285 488.354 354.201 488.32 354.144C488.304 354.115 488.29 354.092 488.281 354.077C488.277 354.07 488.274 354.064 488.271 354.06C488.27 354.058 488.269 354.056 488.269 354.055V354.054H488.268L486.111 350.317L490.356 351.085L490.358 351.086C490.36 351.086 490.361 351.087 490.363 351.087C490.368 351.088 490.376 351.089 490.386 351.091C490.405 351.094 490.434 351.1 490.472 351.106C490.547 351.12 490.657 351.139 490.797 351.165C491.077 351.216 491.476 351.29 491.957 351.379C492.919 351.557 494.207 351.798 495.51 352.049C496.81 352.299 498.137 352.563 499.171 352.785C499.685 352.896 500.146 353 500.502 353.091C500.677 353.135 500.852 353.183 501.005 353.231C501.028 353.239 501.052 353.249 501.078 353.258C501.097 353.256 501.117 353.255 501.139 353.252C501.449 353.209 501.877 353.122 502.343 353.012C502.798 352.904 503.246 352.786 503.583 352.693C503.677 352.668 503.762 352.643 503.835 352.622L508.645 349.347L509.719 348.615L510.823 349.3Z" fill="#54907C" stroke="#09120A" stroke-width="4"/>
<path d="M702.691 422.01L715.081 411.386L715.966 418.469L702.691 422.01Z" fill="#54907C"/>
<path d="M741.632 354.726L743.402 363.579L764.643 357.382L741.632 354.726Z" fill="#54907C"/>
<path d="M716.851 409.616L746.057 406.074L761.102 387.483V371.547L738.092 384.827L731.012 385.712L723.932 399.877L716.851 409.616Z" fill="#54907C"/>
<path d="M607.108 387.483L631.004 382.171L656.67 404.304L643.394 413.157L623.924 393.68L607.108 387.483Z" fill="#54907C"/>
<path d="M624.809 368.006L664.635 374.203L709.771 362.694L721.276 366.235L731.897 355.611L708.886 352.955L692.956 360.923L680.565 360.038L672.6 360.923L646.049 354.726L624.809 368.006Z" fill="#54907C"/>
<path d="M550.284 365.146L560.923 359.512L567.806 362.016L568.432 353.252L585.329 352L589.71 358.886L605.355 357.008C605.355 357.008 613.49 365.146 615.368 365.146C617.245 365.146 592.213 373.91 592.213 373.91L589.084 366.398L551.535 379.545L548.406 373.91L550.284 365.146Z" fill="#406355"/>
<path d="M524 370.78L545.277 374.536L542.148 368.902L549.658 358.26L537.142 354.504L529.632 360.764L530.258 368.902L524 370.78Z" fill="#406355"/>
<path d="M702.691 422.01L715.081 411.386L715.966 418.469L702.691 422.01Z" stroke="#09120A" stroke-width="4"/>
<path d="M741.632 354.726L743.402 363.579L764.643 357.382L741.632 354.726Z" stroke="#09120A" stroke-width="4"/>
<path d="M716.851 409.616L746.057 406.074L761.102 387.483V371.547L738.092 384.827L731.012 385.712L723.932 399.877L716.851 409.616Z" stroke="#09120A" stroke-width="4"/>
<path d="M607.108 387.483L631.004 382.171L656.67 404.304L643.394 413.157L623.924 393.68L607.108 387.483Z" stroke="#09120A" stroke-width="4"/>
<path d="M624.809 368.006L664.635 374.203L709.771 362.694L721.276 366.235L731.897 355.611L708.886 352.955L692.956 360.923L680.565 360.038L672.6 360.923L646.049 354.726L624.809 368.006Z" stroke="#09120A" stroke-width="4"/>
<path d="M550.284 365.146L560.923 359.512L567.806 362.016L568.432 353.252L585.329 352L589.71 358.886L605.355 357.008C605.355 357.008 613.49 365.146 615.368 365.146C617.245 365.146 592.213 373.91 592.213 373.91L589.084 366.398L551.535 379.545L548.406 373.91L550.284 365.146Z" stroke="#09120A" stroke-width="4"/>
<path d="M524 370.78L545.277 374.536L542.148 368.902L549.658 358.26L537.142 354.504L529.632 360.764L530.258 368.902L524 370.78Z" stroke="#09120A" stroke-width="4"/>
<defs>
<clipPath id="clip0_2031_329">
<rect width="241.189" height="76.4732" fill="white" transform="translate(251 294)"/>
</clipPath>
</defs>
</svg>
