<svg width="96" height="96" viewBox="0 0 96 96" fill="none" xmlns="http://www.w3.org/2000/svg">
<path d="M35.8325 82.7649H76.1442C80.2649 82.7649 83.6093 79.4543 83.6093 75.3752V72.4193C83.6093 68.3402 80.2649 65.0296 76.1442 65.0296H35.8325V82.7649ZM35.8325 59.1179H76.1442C80.2649 59.1179 83.6093 55.8073 83.6093 51.7282V42.8605C83.6093 38.7814 80.2649 35.4708 76.1442 35.4708H35.8325V59.1179ZM29.8605 35.4708V59.1179H19.4093C15.2886 59.1179 11.9442 55.8073 11.9442 51.7282V42.8605C11.9442 38.7814 15.2886 35.4708 19.4093 35.4708H29.8605ZM35.8325 29.559H76.1442C80.2649 29.559 83.6093 26.2484 83.6093 22.1693V19.2134C83.6093 15.1343 80.2649 11.8237 76.1442 11.8237H35.8325V29.559ZM29.8605 11.8237V29.559H19.4093C15.2886 29.559 11.9442 26.2484 11.9442 22.1693V19.2134C11.9442 15.1343 15.2886 11.8237 19.4093 11.8237H29.8605ZM29.8605 65.0296V82.7649H19.4093C15.2886 82.7649 11.9442 79.4543 11.9442 75.3752V72.4193C11.9442 68.3402 15.2886 65.0296 19.4093 65.0296H29.8605Z" fill="#406355"/>
</svg>

