<svg width="96" height="96" viewBox="0 0 96 96" fill="none" xmlns="http://www.w3.org/2000/svg">
<path fill-rule="evenodd" clip-rule="evenodd" d="M11.9442 29.8956C11.9442 28.2384 12.6433 26.649 13.8877 25.4772C15.1321 24.3053 16.82 23.647 18.5798 23.647H38.4868V48.6415H11.9442V29.8956ZM38.4868 54.8901H11.9442V73.636C11.9442 75.2932 12.6433 76.8826 13.8877 78.0544C15.1321 79.2263 16.82 79.8846 18.5798 79.8846H38.4868V54.8901ZM45.1225 79.8846H65.0294C66.7893 79.8846 68.4771 79.2263 69.7216 78.0544C70.966 76.8826 71.6651 75.2932 71.6651 73.636V54.8901H45.1225V79.8846ZM45.1225 48.6415V23.647H65.0294C66.7893 23.647 68.4771 24.3053 69.7216 25.4772C70.966 26.649 71.6651 28.2384 71.6651 29.8956V48.6415H45.1225Z" fill="#406355"/>
<path d="M66.2593 20.3936L77.6177 32.2998L79.5933 34.3711L77.6177 36.4414L58.5953 56.3779L58.5963 56.3789C57.9094 57.0998 57.0235 57.5969 56.0552 57.8105L56.0396 57.8135L56.024 57.8174L45.3463 60.0508C41.6402 60.8281 38.8054 57.4362 39.4429 54.1006L41.5767 42.9092H41.5777C41.7614 41.9436 42.2184 41.0535 42.8922 40.3428L42.898 40.3369L61.9175 20.3945L64.0884 18.1182L66.2593 20.3936ZM77.5699 8.82715C79.0387 8.8272 80.4927 9.1294 81.8394 9.71484H81.8404C83.0232 10.2298 84.1051 10.9486 85.0357 11.8369L85.4254 12.2275L85.4312 12.2334C86.3103 13.1668 87.0287 14.2373 87.5582 15.4014L87.773 15.9062L87.7759 15.9131C88.8771 18.6939 88.8771 21.7856 87.7759 24.5664L87.775 24.5654C87.2377 25.9414 86.4358 27.1987 85.4127 28.2656L85.4117 28.2646L83.2457 30.54L81.0748 32.8184L78.9029 30.542L67.5474 18.6396L65.5718 16.5684L67.5474 14.4971L69.7213 12.2197C70.7329 11.1535 71.95 10.3019 73.2984 9.71484H73.2994C74.6463 9.12934 76.1009 8.82715 77.5699 8.82715Z" fill="#406355" stroke="#E1E1E1" stroke-width="6"/>
</svg>

