<svg width="96" height="96" viewBox="0 0 96 96" fill="none" xmlns="http://www.w3.org/2000/svg">
<path d="M11.9442 26.6031C11.9442 22.6834 13.5172 18.9242 16.3171 16.1525C19.1171 13.3808 22.9146 11.8237 26.8744 11.8237H29.8604V29.559H11.9442V26.6031ZM35.8325 29.559V11.8237H59.7209V29.559H35.8325ZM11.9442 35.4708H29.8604V59.1179H11.9442V35.4708ZM35.8325 35.4708V59.1179H47.7946L47.8006 44.3384C47.8022 41.9917 48.7434 39.7413 50.418 38.0802C52.0927 36.4192 54.3642 35.483 56.7348 35.4767L35.8325 35.4708ZM83.6092 58.1956L65.693 40.6199V35.4708H83.6092V58.1956ZM47.7886 65.0296L47.7827 82.7649H35.8325V65.0296H47.7886ZM11.9442 65.0296H29.8604V82.7649H26.8744C22.9146 82.7649 19.1171 81.2078 16.3171 78.4361C13.5172 75.6645 11.9442 71.9053 11.9442 67.9855V65.0296ZM83.6092 26.6031V29.559H65.693V11.8237H68.679C72.6388 11.8237 76.4363 13.3808 79.2363 16.1525C82.0362 18.9242 83.6092 22.6834 83.6092 26.6031ZM58.8609 42.2457C58.4423 41.8349 57.9102 41.556 57.3318 41.444C56.7533 41.332 56.1543 41.392 55.6102 41.6164C55.0662 41.8409 54.6013 42.2196 54.2743 42.7051C53.9473 43.1905 53.7728 43.7609 53.7727 44.3444L53.7488 91.6267C53.7475 92.2476 53.9438 92.8531 54.3098 93.3573C54.6758 93.8616 55.1929 94.2389 55.7877 94.4358C56.3826 94.6328 57.025 94.6393 57.6237 94.4545C58.2225 94.2696 58.7473 93.9028 59.1237 93.4061L71.032 77.7577L91.9164 82.3511C92.5492 82.4909 93.2107 82.4231 93.8011 82.1578C94.3914 81.8925 94.8785 81.4443 95.1888 80.8808C95.4991 80.3173 95.6156 79.6691 95.5209 79.0342C95.4261 78.3993 95.1252 77.8122 94.6636 77.3616L58.8609 42.2457Z" fill="#406355"/>
</svg>

