<svg width="17" height="17" viewBox="0 0 17 17" fill="none" xmlns="http://www.w3.org/2000/svg">
<path d="M16.7232 15.3889L13.5249 12.1907C14.7039 10.6725 15.2599 8.76203 15.0798 6.84827C14.8997 4.93451 13.997 3.16132 12.5554 1.8897C11.1139 0.618091 9.24186 -0.0563489 7.32051 0.00369031C5.39915 0.0637296 3.57291 0.853735 2.21357 2.21287C0.854223 3.57201 0.0639798 5.3981 0.00371764 7.31937C-0.0565445 9.24065 0.617705 11.1127 1.8892 12.5543C3.16069 13.996 4.93384 14.8989 6.84765 15.0792C8.76146 15.2595 10.6721 14.7037 12.1905 13.5249L15.3889 16.7232C15.4764 16.8109 15.5805 16.8805 15.695 16.928C15.8095 16.9755 15.9322 17 16.0562 17C16.1801 17 16.3029 16.9757 16.4174 16.9282C16.5319 16.8808 16.636 16.8113 16.7237 16.7237C16.8113 16.636 16.8808 16.5319 16.9282 16.4174C16.9757 16.3029 17 16.1801 17 16.0562C17 15.9322 16.9755 15.8095 16.928 15.695C16.8805 15.5805 16.8109 15.4765 16.7232 15.3889ZM1.90391 7.56474C1.90391 6.44513 2.23592 5.35067 2.85796 4.41975C3.48 3.48883 4.36414 2.76327 5.39855 2.33481C6.43297 1.90636 7.57122 1.79426 8.66935 2.01268C9.76748 2.2311 10.7762 2.77025 11.5679 3.56193C12.3596 4.35361 12.8988 5.36227 13.1172 6.46036C13.3356 7.55846 13.2235 8.69666 12.795 9.73104C12.3666 10.7654 11.641 11.6495 10.71 12.2715C9.77908 12.8936 8.68458 13.2256 7.56494 13.2256C6.06406 13.2239 4.62513 12.6269 3.56385 11.5657C2.50257 10.5044 1.9056 9.06556 1.90391 7.56474Z" fill="#406355"/>
</svg>
